<svg height="512" viewBox="0 0 64 64" width="512" xmlns="http://www.w3.org/2000/svg"><g id="book-cover-study-education-book_store" data-name="book-cover-study-education-book store"><path d="m10 3h46a0 0 0 0 1 0 0v58a0 0 0 0 1 0 0h-46a2 2 0 0 1 -2-2v-54a2 2 0 0 1 2-2z" fill="#365e7d"/><path d="m13 3h43v58h-43z" fill="#4a80aa"/><path d="m22 18h25v9h-25z" fill="#ef8746"/><path d="m51 14-4-4-4 4v-11h8z" fill="#ec455a"/><path d="m56 2h-46a3.009 3.009 0 0 0 -3 3v54a3.009 3.009 0 0 0 3 3h46a1 1 0 0 0 1-1v-58a1 1 0 0 0 -1-1zm-44 58h-2a1 1 0 0 1 -1-1v-54a1 1 0 0 1 1-1h2zm32-56h6v7.59l-2.29-2.3a1.014 1.014 0 0 0 -1.42 0l-2.29 2.3zm11 56h-41v-56h28v10a.987.987 0 0 0 .62.92 1 1 0 0 0 1.09-.21l3.29-3.3 3.29 3.3a1.007 1.007 0 0 0 .71.29.838.838 0 0 0 .38-.08.987.987 0 0 0 .62-.92v-10h3z"/><path d="m47 17h-25a1 1 0 0 0 -1 1v9a1 1 0 0 0 1 1h25a1 1 0 0 0 1-1v-9a1 1 0 0 0 -1-1zm-1 9h-23v-7h23z"/><path d="m21 33h27v2h-27z"/><path d="m21 39h27v2h-27z"/><path d="m21 45h27v2h-27z"/></g></svg>